# xmcd
#
# Track frame offsets:
#	150
#	9551
#	26575
#	37231
#	50501
#	66025
#	96384
#	107812
#	128062
#	141796
#	164716
#
# Disc length: 2326 seconds
#
# Revision: 0
# Processed by: cddbd v1.5.2PL0 Copyright (c) Steve Scherf et al.
# Submitted via: dBpowerAMP V4.0
#
DISCID=9d09140b
DTITLE=Outburst - Fair And Balanced
DYEAR=2006
DGENRE=Thrash Metal
TTITLE0=220
TTITLE1=Freddy's Song
TTITLE2=Hollow
TTITLE3=The Beast Will Strike Again
TTITLE4=What The Eyes See
TTITLE5=Slaughterhouse
TTITLE6=From Hell
TTITLE7=The End
TTITLE8=My Own Hell
TTITLE9=Attack Of The Overfriend
TTITLE10=Fair And Balanced
EXTD=
EXTT0=
EXTT1=
EXTT2=
EXTT3=
EXTT4=
EXTT5=
EXTT6=
EXTT7=
EXTT8=
EXTT9=
EXTT10=
PLAYORDER=
